<svg width="100" height="100" viewBox="0 0 300 300" fill="none" xmlns="http://www.w3.org/2000/svg">
  <path d="M148.6 30C83.3 30 30 83.3 30 148.6C30 213.9 83.3 267.2 148.6 267.2C213.9 267.2 267.2 213.9 267.2 148.6C267.2 83.3 213.9 30 148.6 30Z" fill="#F9A83A"/>
  <path d="M178.3 175.9C178.3 192.5 166.8 205.9 148.6 205.9C130.4 205.9 118.9 192.5 118.9 175.9H178.3Z" fill="white"/>
  <path d="M96.3 137.4C96.3 150.9 86.3 161.7 73.9 161.7C61.5 161.7 51.5 150.9 51.5 137.4C51.5 123.9 61.5 113.1 73.9 113.1C86.3 113.1 96.3 123.9 96.3 137.4Z" fill="white"/>
  <path d="M89.9 137.4C89.9 145 82.5 151.2 73.5 151.2C64.5 151.2 57.1 145 57.1 137.4C57.1 129.8 64.5 123.6 73.5 123.6C82.5 123.6 89.9 129.8 89.9 137.4Z" fill="black"/>
  <path d="M201.2 137.4C201.2 150.9 211.2 161.7 223.6 161.7C236 161.7 246 150.9 246 137.4C246 123.9 236 113.1 223.6 113.1C211.2 113.1 201.2 123.9 201.2 137.4Z" fill="white"/>
  <path d="M207.6 137.4C207.6 145 215 151.2 224 151.2C233 151.2 240.4 145 240.4 137.4C240.4 129.8 233 123.6 224 123.6C215 123.6 207.6 129.8 207.6 137.4Z" fill="black"/>
</svg>